<?xml version="1.0" standalone="no"?>
<!DOCTYPE svg PUBLIC "-//W3C//DTD SVG 20010904//EN"
 "http://www.w3.org/TR/2001/REC-SVG-20010904/DTD/svg10.dtd">
<svg version="1.0" xmlns="http://www.w3.org/2000/svg"
 width="1024.000000pt" height="1024.000000pt" viewBox="0 0 1024.000000 1024.000000"
 preserveAspectRatio="xMidYMid meet">
<metadata>
Created by potrace 1.14, written by Peter Selinger 2001-2017
</metadata>
<g transform="translate(0.000000,1024.000000) scale(0.100000,-0.100000)"
fill="#000000" stroke="none">
<path d="M0 5120 l0 -5120 5120 0 5120 0 0 5120 0 5120 -5120 0 -5120 0 0
-5120z m5615 3590 c437 -45 863 -170 1205 -352 277 -148 586 -392 751 -594 60
-74 155 -256 145 -277 -3 -7 -10 -19 -16 -27 -5 -8 -20 -42 -31 -74 -14 -39
-55 -104 -117 -185 -167 -221 -511 -624 -597 -700 -61 -53 -130 -81 -203 -81
-92 0 -153 33 -283 157 -162 152 -282 237 -449 316 -345 163 -727 200 -1067
101 -207 -60 -382 -170 -568 -358 -71 -72 -137 -142 -145 -155 -8 -13 -21 -29
-27 -37 -7 -7 -13 -17 -13 -23 0 -6 -4 -11 -10 -11 -5 0 -10 -7 -10 -15 0 -8
-4 -15 -10 -15 -5 0 -10 -7 -10 -15 0 -8 -4 -15 -10 -15 -5 0 -12 -11 -16 -25
-3 -14 -10 -25 -14 -25 -5 0 -16 -21 -26 -46 -10 -25 -24 -52 -31 -60 -8 -7
-16 -22 -18 -32 -1 -9 -12 -33 -23 -52 -51 -89 -123 -323 -151 -490 -39 -244
-30 -626 22 -845 18 -74 61 -217 76 -250 12 -25 21 -54 19 -58 -1 -1 6 -15 15
-32 9 -16 36 -73 60 -125 69 -149 210 -342 326 -445 33 -29 86 -78 126 -115
28 -26 166 -115 225 -145 94 -48 226 -83 440 -117 37 -6 250 15 300 30 30 9
60 15 66 14 7 -1 14 5 18 14 4 10 13 13 26 9 11 -4 20 -2 20 4 0 6 6 11 14 11
7 0 34 16 59 35 25 19 51 35 56 35 6 0 11 5 11 11 0 6 16 30 36 52 65 77 114
208 114 307 0 80 -19 137 -63 184 -39 41 -105 75 -147 76 -8 0 -28 7 -44 15
-25 13 -60 22 -168 39 -66 11 -168 48 -224 82 -70 42 -115 103 -140 191 -33
116 -28 776 7 883 34 104 82 162 174 208 67 33 140 44 430 67 44 4 118 11 165
16 47 6 141 14 210 20 69 5 145 11 170 13 25 3 176 5 335 6 274 2 556 -13 780
-40 44 -5 172 -19 285 -30 291 -30 369 -43 437 -76 32 -15 71 -31 88 -34 24
-4 31 -11 36 -40 4 -19 18 -62 32 -95 17 -40 29 -95 36 -162 20 -192 33 -583
29 -856 -5 -301 -16 -381 -84 -604 -181 -596 -539 -1119 -1004 -1464 -457
-340 -972 -554 -1540 -640 -139 -21 -189 -24 -490 -24 -358 0 -415 5 -683 61
-618 130 -1207 469 -1660 956 -238 256 -452 559 -597 847 -460 916 -490 2137
-75 3106 234 547 626 1043 1110 1404 223 167 369 252 601 350 336 142 664 221
1039 251 123 10 534 4 670 -10z"/>
</g>
</svg>
